# xmcd CD database file
#
# Track frame offsets:
#	150
#	22595
#	47450
#	67898
#	83066
#	105804
#	128884
#	155202
#	189569
#	226202
#	249912
#	277953
#
# Disc length: 4099 seconds
#
# Revision: 0
# Processed by: cddbd v1.5.2PL0 Copyright (c) Steve Scherf et al.
# Submitted via: CDex 1.70beta2
#
DISCID=8510010c
DTITLE=Gordon Goodwin - Act Your Age
DYEAR=2008
DGENRE=Jazz
TTITLE0=Hit the Ground Running
TTITLE1=Watermelon Man
TTITLE2=September
TTITLE3=Yesterdays
TTITLE4=Senor Mouse
TTITLE5=Punta del Soul
TTITLE6=Punda del Soul
TTITLE7=Act Your Age
TTITLE8=Chance Encounters
TTITLE9=Backrow Politics
TTITLE10=East Coast Envy
TTITLE11=El Mach Muchaco
EXTD=YEAR: 2008
EXTT0=
EXTT1=
EXTT2=
EXTT3=
EXTT4=
EXTT5=
EXTT6=
EXTT7=
EXTT8=
EXTT9=
EXTT10=
EXTT11=
PLAYORDER=
